# xmcd
#
# Track frame offsets:
#	150
#	47207
#	59710
#	75465
#	121687
#	149815
#	178645
#	185537
#	222622
#
# Disc length: 4004 seconds
#
# Revision: 1
# Processed by: cddbd v1.5.1PL0 Copyright (c) Steve Scherf et al.
# Submitted via: CDex 1.50Beta5
#
DISCID=8c0fa209
DTITLE=Brahms - ブラームス大好き
DYEAR=1900
DGENRE=
TTITLE0=大学祝典序曲 作品60
TTITLE1=ハンガリー舞曲第5番 ト短調
TTITLE2=ハンガリー舞曲第6番 ニ長調
TTITLE3=弦楽六重奏曲第1番 変ロ長調 作品18:第2楽章
TTITLE4=聖なる子守歌 作品91の2
TTITLE5=第3番 ヘ長調 作品90:第3楽章
TTITLE6=ワルツ 変イ長調 作品39の15
TTITLE7=ヴァイオリン・ソナタ第1番 ト長調 作品78 「雨の歌」:第3楽章
TTITLE8=第1番 ハ短調 作品68:第4楽章
EXTD=
EXTT0=
EXTT1=
EXTT2=
EXTT3=
EXTT4=
EXTT5=
EXTT6=
EXTT7=
EXTT8=
PLAYORDER=
